{"title":"The Rainbow Thief, Alejandro Jodorwsky","uid":6986020,"size":8533025879,"categoryP":"video","categoryS":"hd___movies","magnet":"?xt=urn:btih:5a47a0e19f3c61a675f69b528430441239708e92&amp;dn=The+Rainbow+Thief%2C+Alejandro+Jodorwsky&amp;tr=udp%3A%2F%2Ftracker.openbittorrent.com%3A80&amp;tr=udp%3A%2F%2Fopen.demonii.com%3A1337&amp;tr=udp%3A%2F%2Ftracker.coppersurfer.tk%3A6969&amp;tr=udp%3A%2F%2Fexodus.desync.com%3A6969","seeders":1,"leechers":1,"uploader":"mfccorrea","files":4,"time":1327578394,"description":"In this film, an eccentric prince decides one day to give up all his wealth and position and live his own life. His idea of living his own life, though, is to take up residence in the city's sewers. His dutiful servant, who happens to be a thief, accompanies him.\n\nThis was Jodorowsky's fifth feature-length film, and his first British film. Filming was carried out in Gdansk, Poland. He was frequently threatened by the producers not to change anything in the script, effectively restraining further artistic involvement from his behalf. Jodorowsky has since disowned the movie. It was never released in cinemas, and premiered in France in 1994 as Le voleur d'arc-en-ciel. This movie, along with his previous Tusk in 1980, mark his most impersonal work, set far apart from his earlier work. It was discussed along with his other films in the documentary La Constellation Jodorowsky.\n\n      Complete name : The.Rainbow.Thief.1990.720p.BluRay.DTS-Skazhutin.mkv\n      Format : Matroska\n      File size : 7.95 GiB\n      Duration : 1h 29mn\n      Overall bit rate : 12.7 Mbps\n      Encoded date : UTC 2011-11-16 03:33:36\n      Writing application : mkvmerge v5.0.1 ('Es ist Sommer') built on Oct  9 2011 11:55:43\n      Writing library : libebml v1.2.2 + libmatroska v1.3.0\n      Cover : Yes / Yes\n   Video #1\n      ID : 1\n      Format : AVC\n      Format/Info : Advanced Video Codec\n      Format profile : &lt;a class=&quot;__cf_email__&quot; href=&quot;/cdn-cgi/l/email-protection&quot; data-cfemail=&quot;8bc3e2ece3cbc7bfa5ba&quot;&gt;[email&amp;#160;protected]&lt;/a&gt;&lt;script cf-hash='f9e31' type=&quot;text/javascript&quot;&gt;\n/* &lt;![CDATA[ */!function(){try{var t=&quot;currentScript&quot;in document?document.currentScript:function(){for(var t=document.getElementsByTagName(&quot;script&quot;),e=t.length;e--;)if(t[e].getAttribute(&quot;cf-hash&quot;))return t[e]}();if(t&amp;&amp;t.previousSibling){var e,r,n,i,c=t.previousSibling,a=c.getAttribute(&quot;data-cfemail&quot;);if(a){for(e=&quot;&quot;,r=parseInt(a.substr(0,2),16),n=2;a.length-n;n+=2)i=parseInt(a.substr(n,2),16)^r,e+=String.fromCharCode(i);e=document.createTextNode(e),c.parentNode.replaceChild(e,c)}}}catch(u){}}();/* ]]&gt; */&lt;/script&gt;\n      Format settings, CABAC : Yes\n      Format settings, ReFrames : 8 frames\n      Muxing mode : Container profile=&lt;a class=&quot;__cf_email__&quot; href=&quot;/cdn-cgi/l/email-protection&quot; data-cfemail=&quot;194c777277766e77592d3728&quot;&gt;[email&amp;#160;protected]&lt;/a&gt;&lt;script cf-hash='f9e31' type=&quot;text/javascript&quot;&gt;\n/* &lt;![CDATA[ */!function(){try{var t=&quot;currentScript&quot;in document?document.currentScript:function(){for(var t=document.getElementsByTagName(&quot;script&quot;),e=t.length;e--;)if(t[e].getAttribute(&quot;cf-hash&quot;))return t[e]}();if(t&amp;&amp;t.previousSibling){var e,r,n,i,c=t.previousSibling,a=c.getAttribute(&quot;data-cfemail&quot;);if(a){for(e=&quot;&quot;,r=parseInt(a.substr(0,2),16),n=2;a.length-n;n+=2)i=parseInt(a.substr(n,2),16)^r,e+=String.fromCharCode(i);e=document.createTextNode(e),c.parentNode.replaceChild(e,c)}}}catch(u){}}();/* ]]&gt; */&lt;/script&gt;\n      Codec ID : V_MPEG4/ISO/AVC\n      Duration : 1h 29mn\n      Bit rate : 10.9 Mbps\n      Nominal bit rate : 11.2 Mbps\n      Width : 1 280 pixels\n      Height : 720 pixels\n      Display aspect ratio : 16:9\n      Frame rate : 25.000 fps\n      Resolution : 24 bits\n      Colorimetry : 4:2:0\n      Scan type : Progressive\n      Bits/(Pixel*Frame) : 0.474\n      Stream size : 6.84 GiB (86%)\n      Title : The.Rainbow.Thief.1990.720p.BluRay.DTS-Skazhutin\n      Writing library : x264 core 119 r2106kMod 07efeb4\n   Audio #2\n      ID : 2\n      Format : DTS\n      Format/Info : Digital Theater Systems\n      Codec ID : A_DTS\n      Duration : 1h 29mn\n      Bit rate mode : Constant\n      Bit rate : 1 510 Kbps\n      Channel(s) : 2 channels\n      Channel positions : L R\n      Sampling rate : 48.0 KHz\n      Resolution : 16 bits\n      Stream size : 968 MiB (12%)\n &lt;a href=&quot;\nhttp://www.imdb.com/title/tt0100456/&quot; rel=&quot;nofollow&quot; target=&quot;_NEW&quot;&gt;\nhttp://www.imdb.com/title/tt0100456/&lt;/a&gt;\n\nAudio: English\nSubtitles: English, German and Portuguese (srt)\n\nPosted originally at KG by Fac1, whom we thank","torrent":{"xt":"urn:btih:5a47a0e19f3c61a675f69b528430441239708e92","amp;dn":"The+Rainbow+Thief%2C+Alejandro+Jodorwsky","amp;tr":["udp%3A%2F%2Ftracker.openbittorrent.com%3A80","udp%3A%2F%2Fopen.demonii.com%3A1337","udp%3A%2F%2Ftracker.coppersurfer.tk%3A6969","udp%3A%2F%2Fexodus.desync.com%3A6969"],"infoHash":"5a47a0e19f3c61a675f69b528430441239708e92","infoHashBuffer":{"type":"Buffer","data":[90,71,160,225,159,60,97,166,117,246,155,82,132,48,68,18,57,112,142,146]},"announce":[],"urlList":[]}}